HIERARCHY
ROOT Hip
{
	OFFSET	0.0000	0.0000	0.0000
	CHANNELS 6 Xposition Yposition Zposition Xrotation Yrotation Zrotation
	JOINT LowerSpine
	{
		OFFSET	0.0000	10.0322	-5.4289
		CHANNELS 3 Xrotation Yrotation Zrotation
		JOINT MiddleSpine
		{
			OFFSET	0.0000	9.1552	0.4782
			CHANNELS 3 Xrotation Yrotation Zrotation
			JOINT Chest
			{
				OFFSET	0.0000	11.3285	-2.5216
				CHANNELS 3 Xrotation Yrotation Zrotation
				JOINT Neck
				{
					OFFSET	0.0000	25.5283	-0.5309
					CHANNELS 3 Xrotation Yrotation Zrotation
					JOINT Head
					{
						OFFSET	0.0000	14.4161	3.9212
						CHANNELS 3 Xrotation Yrotation Zrotation
						End Site
						{
							OFFSET	0.0001	20.1431	0.6013
						}
					}
				}
				JOINT LClavicle
				{
					OFFSET	2.5773	24.6361	8.4405
					CHANNELS 3 Xrotation Yrotation Zrotation
					JOINT LShoulder
					{
						OFFSET	15.0569	3.5337	-5.7178
						CHANNELS 3 Xrotation Yrotation Zrotation
						JOINT LForearm
						{
							OFFSET	31.9839	-0.1136	-0.2771
							CHANNELS 3 Xrotation Yrotation Zrotation
							JOINT LHand
							{
								OFFSET	26.6813	0.0774	-0.1598
								CHANNELS 3 Xrotation Yrotation Zrotation
								JOINT LFinger1
								{
									OFFSET	10.3409	0.9043	2.8721
									CHANNELS 3 Xrotation Yrotation Zrotation
									JOINT LFinger11
									{
										OFFSET	3.8680	-0.9432	0.6816
										CHANNELS 3 Xrotation Yrotation Zrotation
										JOINT LFinger12
										{
											OFFSET	2.6406	-0.6442	0.4655
											CHANNELS 3 Xrotation Yrotation Zrotation
											End Site
											{
												OFFSET	1.8790	-0.5609	0.3048
											}
										}
									}
								}
								JOINT LFinger2
								{
									OFFSET	10.4952	1.0444	0.2501
									CHANNELS 3 Xrotation Yrotation Zrotation
									JOINT LFinger21
									{
										OFFSET	4.7826	0.0133	-0.0282
										CHANNELS 3 Xrotation Yrotation Zrotation
										JOINT LFinger22
										{
											OFFSET	2.6509	0.0081	-0.0161
											CHANNELS 3 Xrotation Yrotation Zrotation
											End Site
											{
												OFFSET	2.3811	-0.1681	0.0032
											}
										}
									}
								}
								JOINT LFinger3
								{
									OFFSET	9.9464	0.6969	-2.3531
									CHANNELS 3 Xrotation Yrotation Zrotation
									JOINT LFinger31
									{
										OFFSET	4.3397	-0.2197	-0.2717
										CHANNELS 3 Xrotation Yrotation Zrotation
										JOINT LFinger32
										{
											OFFSET	2.4729	-0.1244	-0.1554
											CHANNELS 3 Xrotation Yrotation Zrotation
											End Site
											{
												OFFSET	2.1865	-0.2688	-0.1034
											}
										}
									}
								}
								JOINT LFinger4
								{
									OFFSET	9.2298	-0.7015	-4.0639
									CHANNELS 3 Xrotation Yrotation Zrotation
									JOINT LFinger41
									{
										OFFSET	2.6693	-0.5567	-0.7368
										CHANNELS 3 Xrotation Yrotation Zrotation
										JOINT LFinger42
										{
											OFFSET	1.9574	-0.4077	-0.5407
											CHANNELS 3 Xrotation Yrotation Zrotation
											End Site
											{
												OFFSET	1.7374	-0.4774	-0.3986
											}
										}
									}
								}
								JOINT LFinger0
								{
									OFFSET	2.1391	-1.6191	1.6216
									CHANNELS 3 Xrotation Yrotation Zrotation
									JOINT LFinger01
									{
										OFFSET	3.9827	-1.3081	3.0028
										CHANNELS 3 Xrotation Yrotation Zrotation
										JOINT LFinger02
										{
											OFFSET	2.6226	-0.9384	1.8895
											CHANNELS 3 Xrotation Yrotation Zrotation
											End Site
											{
												OFFSET	1.9286	-0.6639	1.3206
											}
										}
									}
								}
							}
						}
					}
				}
				JOINT RClavicle
				{
					OFFSET	-2.5773	24.6361	8.4405
					CHANNELS 3 Xrotation Yrotation Zrotation
					JOINT RShoulder
					{
						OFFSET	-15.0596	3.5343	-5.7188
						CHANNELS 3 Xrotation Yrotation Zrotation
						JOINT RForearm
						{
							OFFSET	-31.9839	-0.1136	-0.2771
							CHANNELS 3 Xrotation Yrotation Zrotation
							JOINT RHand
							{
								OFFSET	-26.6813	0.0774	-0.1598
								CHANNELS 3 Xrotation Yrotation Zrotation
								JOINT RFinger1
								{
									OFFSET	-10.3409	0.9043	2.8721
									CHANNELS 3 Xrotation Yrotation Zrotation
									JOINT RFinger11
									{
										OFFSET	-3.8680	-0.9432	0.6816
										CHANNELS 3 Xrotation Yrotation Zrotation
										JOINT RFinger12
										{
											OFFSET	-2.6406	-0.6442	0.4655
											CHANNELS 3 Xrotation Yrotation Zrotation
											End Site
											{
												OFFSET	-1.8790	-0.5609	0.3048
											}
										}
									}
								}
								JOINT RFinger2
								{
									OFFSET	-10.4952	1.0444	0.2501
									CHANNELS 3 Xrotation Yrotation Zrotation
									JOINT RFinger21
									{
										OFFSET	-4.7826	0.0133	-0.0282
										CHANNELS 3 Xrotation Yrotation Zrotation
										JOINT RFinger22
										{
											OFFSET	-2.6509	0.0081	-0.0161
											CHANNELS 3 Xrotation Yrotation Zrotation
											End Site
											{
												OFFSET	-2.3811	-0.1681	0.0032
											}
										}
									}
								}
								JOINT RFinger3
								{
									OFFSET	-9.9464	0.6969	-2.3531
									CHANNELS 3 Xrotation Yrotation Zrotation
									JOINT RFinger31
									{
										OFFSET	-4.3397	-0.2197	-0.2717
										CHANNELS 3 Xrotation Yrotation Zrotation
										JOINT RFinger32
										{
											OFFSET	-2.4729	-0.1244	-0.1554
											CHANNELS 3 Xrotation Yrotation Zrotation
											End Site
											{
												OFFSET	-2.1865	-0.2688	-0.1034
											}
										}
									}
								}
								JOINT RFinger4
								{
									OFFSET	-9.2298	-0.7015	-4.0639
									CHANNELS 3 Xrotation Yrotation Zrotation
									JOINT RFinger41
									{
										OFFSET	-2.6693	-0.5567	-0.7368
										CHANNELS 3 Xrotation Yrotation Zrotation
										JOINT RFinger42
										{
											OFFSET	-1.9574	-0.4077	-0.5407
											CHANNELS 3 Xrotation Yrotation Zrotation
											End Site
											{
												OFFSET	-1.7374	-0.4774	-0.3986
											}
										}
									}
								}
								JOINT RFinger0
								{
									OFFSET	-2.1391	-1.6191	1.6216
									CHANNELS 3 Xrotation Yrotation Zrotation
									JOINT RFinger01
									{
										OFFSET	-3.9827	-1.3081	3.0028
										CHANNELS 3 Xrotation Yrotation Zrotation
										JOINT RFinger02
										{
											OFFSET	-2.6226	-0.9384	1.8895
											CHANNELS 3 Xrotation Yrotation Zrotation
											End Site
											{
												OFFSET	-1.9286	-0.6639	1.3206
											}
										}
									}
								}
							}
						}
					}
				}
			}
		}
	}
	JOINT RThigh
	{
		OFFSET	-10.7320	4.5349	-0.8846
		CHANNELS 3 Xrotation Yrotation Zrotation
		JOINT RShin
		{
			OFFSET	-0.8587	-46.6794	0.0000
			CHANNELS 3 Xrotation Yrotation Zrotation
			JOINT RFoot
			{
				OFFSET	0.0000	-45.8363	0.0000
				CHANNELS 3 Xrotation Yrotation Zrotation
				JOINT RToe
				{
					OFFSET	0.0000	-5.0378	10.5347
					CHANNELS 3 Xrotation Yrotation Zrotation
					End Site
					{
						OFFSET	0.0000	0.0000	7.0673
					}
				}
			}
		}
	}
	JOINT LThigh
	{
		OFFSET	10.7319	4.5352	-0.8846
		CHANNELS 3 Xrotation Yrotation Zrotation
		JOINT LShin
		{
			OFFSET	0.8588	-46.6797	0.0000
			CHANNELS 3 Xrotation Yrotation Zrotation
			JOINT LFoot
			{
				OFFSET	0.0000	-45.8363	0.0000
				CHANNELS 3 Xrotation Yrotation Zrotation
				JOINT LToe
				{
					OFFSET	0.0000	-5.0378	10.5348
					CHANNELS 3 Xrotation Yrotation Zrotation
					End Site
					{
						OFFSET	0.0000	0.0000	7.0673
					}
				}
			}
		}
	}
}
MOTION
Frames:	7
Frame Time: 0.0333333000
	3.5689	96.1604	19.0535	-7.738138	-1.187004	-3.805163	0.000000	0.000000	0.000000	3.967947	-0.962122	1.321673	13.312910	-2.835611	4.643327	0.000000	0.000000	0.000000	0.000000	0.000000	0.000000	0.000000	0.000000	-14.978690	9.460633	-25.711540	-58.485530	-2.926844	-34.338110	-0.035654	0.000000	0.000000	0.000000	0.000000	0.000000	0.000000	0.000000	0.000000	0.000000	0.000000	0.000000	0.000000	0.000000	0.000000	0.000000	0.000000	0.000000	0.000000	0.000000	0.000000	0.000000	0.000000	0.000000	0.000000	0.000000	0.000000	0.000000	0.000000	0.000000	0.000000	0.000000	0.000000	0.000000	0.000000	0.000000	0.000000	0.000000	0.000000	0.000000	0.000000	0.000000	0.000000	0.000000	0.000000	0.000000	0.000000	0.000000	0.000000	0.000000	0.000000	14.672920	11.438620	9.308170	62.942760	-11.950730	30.584900	-0.053233	0.000000	0.000000	0.000000	0.000000	0.000000	0.000000	0.000000	0.000000	0.000000	0.000000	0.000000	0.000000	0.000000	0.000000	0.000000	0.000000	0.000000	0.000000	0.000000	0.000000	0.000000	0.000000	0.000000	0.000000	0.000000	0.000000	0.000000	0.000000	0.000000	0.000000	0.000000	0.000000	0.000000	0.000000	0.000000	0.000000	0.000000	0.000000	0.000000	0.000000	0.000000	0.000000	0.000000	0.000000	0.000000	0.000000	0.000000	0.000000	-2.336827	0.022258	0.818956	0.234181	1.019011	-0.853934	5.805355	4.071376	1.696259	0.000000	0.000000	0.000000	10.746560	0.583162	2.734814	21.596050	0.403213	0.283561	-4.738055	-3.341399	-1.768984	-3.735451	0.000000	0.000000
	2.5897	96.0737	20.7420	-7.977886	-0.782649	-3.892307	0.000000	0.000000	0.000000	3.956323	-0.928642	1.336523	13.281650	-2.748523	4.673381	0.000000	0.000000	0.000000	0.000000	0.000000	0.000000	0.000000	0.000000	-14.964920	11.234990	-23.676250	-58.001690	-2.367818	-35.938000	-0.036968	0.000000	0.000000	0.000000	0.000000	0.000000	0.000000	0.000000	0.000000	0.000000	0.000000	0.000000	0.000000	0.000000	0.000000	0.000000	0.000000	0.000000	0.000000	0.000000	0.000000	0.000000	0.000000	0.000000	0.000000	0.000000	0.000000	0.000000	0.000000	0.000000	0.000000	0.000000	0.000000	0.000000	0.000000	0.000000	0.000000	0.000000	0.000000	0.000000	0.000000	0.000000	0.000000	0.000000	0.000000	0.000000	0.000000	0.000000	0.000000	0.000000	0.000000	14.603550	10.761720	11.626990	62.063910	-10.805070	29.800060	-0.050069	0.000000	0.000000	0.000000	0.000000	0.000000	0.000000	0.000000	0.000000	0.000000	0.000000	0.000000	0.000000	0.000000	0.000000	0.000000	0.000000	0.000000	0.000000	0.000000	0.000000	0.000000	0.000000	0.000000	0.000000	0.000000	0.000000	0.000000	0.000000	0.000000	0.000000	0.000000	0.000000	0.000000	0.000000	0.000000	0.000000	0.000000	0.000000	0.000000	0.000000	0.000000	0.000000	0.000000	0.000000	0.000000	0.000000	0.000000	0.000000	-0.927324	-0.003940	1.538703	0.152476	1.104879	-1.038603	3.612263	3.964091	1.743572	0.000000	0.000000	0.000000	11.229150	-0.413095	3.107105	22.953830	-0.470572	0.530152	-4.090935	-1.843022	-0.953655	-4.861354	0.000000	0.000000
	1.6114	96.0633	22.3362	-8.243394	-0.179756	-3.882045	0.000000	0.000000	0.000000	3.952555	-0.919955	1.340335	13.246240	-2.670735	4.699779	0.000000	0.000000	0.000000	0.000000	0.000000	0.000000	0.000000	0.000000	-14.914490	12.275160	-21.585940	-57.990260	-2.543679	-36.711580	-0.045765	0.000000	0.000000	0.000000	0.000000	0.000000	0.000000	0.000000	0.000000	0.000000	0.000000	0.000000	0.000000	0.000000	0.000000	0.000000	0.000000	0.000000	0.000000	0.000000	0.000000	0.000000	0.000000	0.000000	0.000000	0.000000	0.000000	0.000000	0.000000	0.000000	0.000000	0.000000	0.000000	0.000000	0.000000	0.000000	0.000000	0.000000	0.000000	0.000000	0.000000	0.000000	0.000000	0.000000	0.000000	0.000000	0.000000	0.000000	0.000000	0.000000	0.000000	14.567790	10.110130	13.892840	61.066440	-9.668554	29.249450	-0.037770	0.000000	0.000000	0.000000	0.000000	0.000000	0.000000	0.000000	0.000000	0.000000	0.000000	0.000000	0.000000	0.000000	0.000000	0.000000	0.000000	0.000000	0.000000	0.000000	0.000000	0.000000	0.000000	0.000000	0.000000	0.000000	0.000000	0.000000	0.000000	0.000000	0.000000	0.000000	0.000000	0.000000	0.000000	0.000000	0.000000	0.000000	0.000000	0.000000	0.000000	0.000000	0.000000	0.000000	0.000000	0.000000	0.000000	0.000000	0.000000	0.336571	-0.012045	1.998668	0.311574	1.188800	-0.776255	2.072166	3.504865	1.605091	0.000000	0.000000	0.000000	10.912060	-1.590491	3.192494	25.499330	-1.426550	0.887848	-2.145118	0.665243	0.355641	-7.280299	0.000000	0.000000
	0.8387	96.1976	23.9881	-8.611279	0.954144	-3.645301	0.000000	0.000000	0.000000	3.937913	-0.893214	1.351720	13.206910	-2.603618	4.721655	0.000000	0.000000	0.000000	0.000000	0.000000	0.000000	0.000000	0.000000	-14.891730	12.612140	-19.916600	-58.450150	-3.240824	-36.349510	-0.041074	0.000000	0.000000	0.000000	0.000000	0.000000	0.000000	0.000000	0.000000	0.000000	0.000000	0.000000	0.000000	0.000000	0.000000	0.000000	0.000000	0.000000	0.000000	0.000000	0.000000	0.000000	0.000000	0.000000	0.000000	0.000000	0.000000	0.000000	0.000000	0.000000	0.000000	0.000000	0.000000	0.000000	0.000000	0.000000	0.000000	0.000000	0.000000	0.000000	0.000000	0.000000	0.000000	0.000000	0.000000	0.000000	0.000000	0.000000	0.000000	0.000000	0.000000	14.521370	9.558070	15.462900	60.165520	-8.925977	29.160360	-0.027967	0.000000	0.000000	0.000000	0.000000	0.000000	0.000000	0.000000	0.000000	0.000000	0.000000	0.000000	0.000000	0.000000	0.000000	0.000000	0.000000	0.000000	0.000000	0.000000	0.000000	0.000000	0.000000	0.000000	0.000000	0.000000	0.000000	0.000000	0.000000	0.000000	0.000000	0.000000	0.000000	0.000000	0.000000	0.000000	0.000000	0.000000	0.000000	0.000000	0.000000	0.000000	0.000000	0.000000	0.000000	0.000000	0.000000	0.000000	0.000000	1.743834	-0.014699	1.997903	0.558680	1.275237	-0.151290	1.397755	2.734510	1.267867	0.000000	0.000000	0.000000	9.885533	-2.937756	2.886333	29.175180	-2.396718	1.555433	0.167892	2.138386	1.012828	-8.269263	0.000000	0.000000
	0.2008	96.3376	25.7313	-9.089248	2.445203	-3.269558	0.000000	0.000000	0.000000	3.921391	-0.871880	1.360147	13.163810	-2.548580	4.738134	0.000000	0.000000	0.000000	0.000000	0.000000	0.000000	0.000000	0.000000	-14.868770	12.949000	-18.568540	-58.814240	-3.747455	-35.907600	-0.024321	0.000000	0.000000	0.000000	0.000000	0.000000	0.000000	0.000000	0.000000	0.000000	0.000000	0.000000	0.000000	0.000000	0.000000	0.000000	0.000000	0.000000	0.000000	0.000000	0.000000	0.000000	0.000000	0.000000	0.000000	0.000000	0.000000	0.000000	0.000000	0.000000	0.000000	0.000000	0.000000	0.000000	0.000000	0.000000	0.000000	0.000000	0.000000	0.000000	0.000000	0.000000	0.000000	0.000000	0.000000	0.000000	0.000000	0.000000	0.000000	0.000000	0.000000	14.473640	9.094223	16.493140	59.398870	-8.491622	29.369100	-0.024407	0.000000	0.000000	0.000000	0.000000	0.000000	0.000000	0.000000	0.000000	0.000000	0.000000	0.000000	0.000000	0.000000	0.000000	0.000000	0.000000	0.000000	0.000000	0.000000	0.000000	0.000000	0.000000	0.000000	0.000000	0.000000	0.000000	0.000000	0.000000	0.000000	0.000000	0.000000	0.000000	0.000000	0.000000	0.000000	0.000000	0.000000	0.000000	0.000000	0.000000	0.000000	0.000000	0.000000	0.000000	0.000000	0.000000	0.000000	0.000000	3.300443	-0.027367	1.749799	0.882444	1.364741	0.679788	0.668192	1.670433	0.784016	0.000000	0.000000	0.000000	8.660265	-4.671180	2.489259	33.285800	-3.583447	2.625472	0.846847	1.267029	0.570913	-5.618578	0.000000	0.000000
	-0.5423	96.4265	27.4157	-9.602743	3.873345	-2.949341	0.000000	0.000000	0.000000	3.916261	-0.867077	1.361821	13.117090	-2.506913	4.748321	0.000000	0.000000	0.000000	0.000000	0.000000	0.000000	0.000000	0.000000	-14.816200	13.639230	-17.213620	-58.719650	-3.799700	-36.033750	-0.021949	0.000000	0.000000	0.000000	0.000000	0.000000	0.000000	0.000000	0.000000	0.000000	0.000000	0.000000	0.000000	0.000000	0.000000	0.000000	0.000000	0.000000	0.000000	0.000000	0.000000	0.000000	0.000000	0.000000	0.000000	0.000000	0.000000	0.000000	0.000000	0.000000	0.000000	0.000000	0.000000	0.000000	0.000000	0.000000	0.000000	0.000000	0.000000	0.000000	0.000000	0.000000	0.000000	0.000000	0.000000	0.000000	0.000000	0.000000	0.000000	0.000000	0.000000	14.434600	8.659490	17.539810	58.670530	-8.056666	29.593240	-0.022137	0.000000	0.000000	0.000000	0.000000	0.000000	0.000000	0.000000	0.000000	0.000000	0.000000	0.000000	0.000000	0.000000	0.000000	0.000000	0.000000	0.000000	0.000000	0.000000	0.000000	0.000000	0.000000	0.000000	0.000000	0.000000	0.000000	0.000000	0.000000	0.000000	0.000000	0.000000	0.000000	0.000000	0.000000	0.000000	0.000000	0.000000	0.000000	0.000000	0.000000	0.000000	0.000000	0.000000	0.000000	0.000000	0.000000	0.000000	0.000000	4.787012	-0.040933	1.645238	1.266408	1.456887	1.560509	-0.306560	0.515720	0.249540	0.000000	0.000000	0.000000	7.500925	-6.292236	2.475876	37.019890	-4.610852	3.782254	0.156842	-0.311337	-0.150903	-1.969678	0.000000	0.000000
	-1.3990	96.5122	29.0109	-10.113720	5.089740	-2.716513	0.000000	0.000000	0.000000	3.896947	-0.855223	1.364660	13.066880	-2.479593	4.751370	0.000000	0.000000	0.000000	0.000000	0.000000	0.000000	0.000000	0.000000	-14.799500	14.536960	-15.868920	-58.288190	-3.525595	-36.345240	-0.024072	0.000000	0.000000	0.000000	0.000000	0.000000	0.000000	0.000000	0.000000	0.000000	0.000000	0.000000	0.000000	0.000000	0.000000	0.000000	0.000000	0.000000	0.000000	0.000000	0.000000	0.000000	0.000000	0.000000	0.000000	0.000000	0.000000	0.000000	0.000000	0.000000	0.000000	0.000000	0.000000	0.000000	0.000000	0.000000	0.000000	0.000000	0.000000	0.000000	0.000000	0.000000	0.000000	0.000000	0.000000	0.000000	0.000000	0.000000	0.000000	0.000000	0.000000	14.348130	8.067361	18.608770	58.047490	-7.791561	29.827810	-0.021647	0.000000	0.000000	0.000000	0.000000	0.000000	0.000000	0.000000	0.000000	0.000000	0.000000	0.000000	0.000000	0.000000	0.000000	0.000000	0.000000	0.000000	0.000000	0.000000	0.000000	0.000000	0.000000	0.000000	0.000000	0.000000	0.000000	0.000000	0.000000	0.000000	0.000000	0.000000	0.000000	0.000000	0.000000	0.000000	0.000000	0.000000	0.000000	0.000000	0.000000	0.000000	0.000000	0.000000	0.000000	0.000000	0.000000	0.000000	0.000000	6.159389	-0.042315	1.785066	1.647398	1.551173	2.328277	-1.125115	-0.513444	-0.251198	0.000000	0.000000	0.000000	6.220219	-7.117387	2.990742	40.237520	-4.968075	4.524563	-0.388570	-1.033771	-0.498675	-0.263330	0.000000	0.000000
